<svg xmlns="http://www.w3.org/2000/svg" viewBox="0 0 32 32" width="32" height="32">
  <!-- Skull -->
  <!-- Cranium -->
  <ellipse cx="16" cy="14" rx="10" ry="11" fill="white" stroke="#000" stroke-width="1"/>

  <!-- Eye sockets -->
  <ellipse cx="12" cy="12" rx="3" ry="4" fill="#000"/>
  <ellipse cx="20" cy="12" rx="3" ry="4" fill="#000"/>

  <!-- Nose cavity (upside-down heart shape) -->
  <path d="M 14 18 L 16 20 L 18 18 L 18 16 L 16 15 L 14 16 Z" fill="#000"/>

  <!-- Teeth (upper jaw) -->
  <rect x="11" y="22" width="2" height="3" fill="white" stroke="#000" stroke-width="0.5"/>
  <rect x="13" y="22" width="2" height="3" fill="white" stroke="#000" stroke-width="0.5"/>
  <rect x="15" y="22" width="2" height="3" fill="white" stroke="#000" stroke-width="0.5"/>
  <rect x="17" y="22" width="2" height="3" fill="white" stroke="#000" stroke-width="0.5"/>
  <rect x="19" y="22" width="2" height="3" fill="white" stroke="#000" stroke-width="0.5"/>

  <!-- Jaw line -->
  <path d="M 6 20 Q 16 28, 26 20" fill="none" stroke="#000" stroke-width="1"/>

  <!-- Cracks -->
  <path d="M 20 8 L 22 6" stroke="#000" stroke-width="0.5"/>
  <path d="M 10 7 L 8 5" stroke="#000" stroke-width="0.5"/>
</svg>
